<svg id="ba778800-076a-495a-93c0-0bf84c054e46" viewBox="0 0 64 64" xmlns="http://www.w3.org/2000/svg" xmlns:xlink="http://www.w3.org/1999/xlink" data-name="Flat Gradient Flaticon"><linearGradient id="b6b60283-1ac9-4154-ba4f-0192ddda7d8f" gradientUnits="userSpaceOnUse" x1="4" x2="60" y1="32" y2="32"><stop offset="0" stop-color="#00c0ff"/><stop offset="1" stop-color="#5558ff"/></linearGradient><path d="m4.74231 42.99475 7.68292 2.49091a26.25353 26.25353 0 0 0 8.63324 1.52063 17.4932 17.4932 0 0 0 1.90076-.09009c.5802.02 4.07153-.02 8.95337-2.731.28033-.15778 6.12756-4.50153 15.60608-2.21094a18.99107 18.99107 0 0 1 4.68158 1.90082c.16.11005 3.81146 2.741 6.7926 2.91107a.96706.96706 0 0 0 .11-1.93072 8.81728 8.81728 0 0 1 -3.27119-1.06043l-6.8426-16.55627-3.59136 8.20312a.72588.72588 0 0 1 -1.33051-.58032l1.30048-2.981c-.00977.01673-5.69074-14.094-5.69214-14.09533l-2.721 6.16235 1.38046 4.89181a.72349.72349 0 0 1 -1.3905.40014c-.97345-3.45746-4.55676-16.13885-5.59216-19.80743-.61243 2.405-3.55353 14.03924-4.0915 16.156a.7219.7219 0 0 1 -1.40057-.35009l.72034-2.88105-4.3617-7.3728c-1.4505 4.8216-5.23712 17.41345-6.38232 22.12836a.726.726 0 0 1 -1.40059-.38019l1.85071-6.93256-1.80071-4.46174-6.56248 16.64638c-.62066-.21015-1.97046-.61438-2.59088-.83045a.96664.96664 0 0 0 -.59033 1.84082zm25.76977-22.80859a.96647.96647 0 0 1 1.93073.09l-.32013 6.3924a5.58368 5.58368 0 0 0 .77033 3.14117l1.28045 2.19086a7.59852 7.59852 0 0 1 .68024 6.14233.96022.96022 0 1 1 -1.83063-.58026 5.69915 5.69915 0 0 0 -.52026-4.58172l-1.28052-2.19084a7.52992 7.52992 0 0 1 -1.03029-4.22156zm-10.19384 12.35461c.43512-1.05749 1.78381-3.17377 1.57068-3.95148l-.42029-3.45129a.973.973 0 0 1 1.93078-.24005c.08814 1.46777.84644 4.25915.05 5.61206l-1.39051 2.87109a1.93928 1.93928 0 0 0 .57019 2.40088 3.84331 3.84331 0 0 1 1.23047 4.61182c-.141.32641-.44342 1.09039-.59021 1.41046a.96836.96836 0 0 1 -1.7807-.76031l.60028-1.40046a1.94259 1.94259 0 0 0 -.6203-2.32086 3.87954 3.87954 0 0 1 -1.15039-4.78186zm38.60119 21.8064c-2.97693-.17121-6.635-2.79675-6.78967-2.90845-8.93921-5.17963-18.621-1.1684-20.28992.30786-4.8814 2.70911-8.36877 2.75672-8.94976 2.73694-.64521.05841-1.28193.08441-1.90351.08441a26.31273 26.31273 0 0 1 -8.63385-1.51819l-7.69238-2.49548a.966.966 0 0 1 .59607-1.83752l7.74341 2.51355c3.19317 1.00317 10.17871 3.1654 17.85156-1.14466 2.30218-1.94769 12.885-5.88586 22.36505-.24353.07916.05573 3.40326 2.43787 5.81433 2.57611a.96621.96621 0 0 1 -.11133 1.92896z" fill="url(#b6b60283-1ac9-4154-ba4f-0192ddda7d8f)"/></svg>